# xmcd
# 
# Track frame offsets:
#     150
#     37895
#     74245
#     88665
#     110307
#     151310
#     193552
#     232425
#     290897
#     322077
# 
# Disc length: 4752
# 
# Revision: 1
# Processed by: cddbd v1.5.2PL0 Copyright (c) Steve Scherf et al.
# Submitted via: fre:ac v1.0.31
# 
DISCID=99128e0a
DTITLE=Nick Moss And The Flip Tops - Live At Chan's-Combo Platter #2
DYEAR=2009
DGENRE=Blues
TTITLE0=Spare Ribs and Chopsticks
TTITLE1=Try To Treat You Right
TTITLE2=Whiskey Makes Me Mean
TTITLE3=I Got All Kinds of Love
TTITLE4=Lonesome Bedroom Blues
TTITLE5=Fill 'er Up
TTITLE6=Don't You Lie To Me
TTITLE7=Five Long Years
TTITLE8=I'm Ready
TTITLE9=I Wanna Know
EXTD=
EXTT0=
EXTT1=
EXTT2=
EXTT3=
EXTT4=
EXTT5=
EXTT6=
EXTT7=
EXTT8=
EXTT9=
PLAYORDER=
